# xmcd
#
# Track frame offsets:
#	183
#	12778
#	25168
#	35103
#	46003
#	56763
#	67978
#	79860
#	91685
#	99298
#	110400
#	122533
#	131120
#	139320
#	148320
#	163270
#
# Disc length: 2281 seconds
#
# Revision: 2
# Processed by: cddbd v1.5.1PL0 Copyright (c) Steve Scherf et al.
# Submitted via: audiograbber 1.83.01
#
DISCID=d908e710
DTITLE=Johnny Cash - Folsom Prison Blues
DYEAR=1996
DGENRE=Country
TTITLE0=Folsom Prison Blues
TTITLE1=I walk the Line
TTITLE2=Ballade of a Teenage Queen
TTITLE3=Cry, Cry,Cry
TTITLE4=Train of love
TTITLE5=Don´t make me go
TTITLE6=Home of the blues
TTITLE7=So Doggone Lonesome
TTITLE8=Come In Stranger
TTITLE9=Oh Lonesome me
TTITLE10=Give my Love to Rose
TTITLE11=Katy Too
TTITLE12=Big River
TTITLE13=Luther Played The Boogie
TTITLE14=The Ballad of Ira Hayes
TTITLE15=I Got Stripes
EXTD=
EXTT0=
EXTT1=
EXTT2=
EXTT3=
EXTT4=
EXTT5=
EXTT6=
EXTT7=
EXTT8=
EXTT9=
EXTT10=
EXTT11=
EXTT12=
EXTT13=
EXTT14=
EXTT15=
PLAYORDER=
